<?xml version="1.0" encoding="UTF-8"?>
<!DOCTYPE svg PUBLIC "-//W3C//DTD SVG 1.1//EN" "http://www.w3.org/Graphics/SVG/1.1/DTD/svg11.dtd">
<!-- Creator: CorelDRAW 2020 (64-Bit) -->
<svg xmlns="http://www.w3.org/2000/svg" xml:space="preserve" width="117.735mm" height="108.277mm" version="1.1" style="shape-rendering:geometricPrecision; text-rendering:geometricPrecision; image-rendering:optimizeQuality; fill-rule:evenodd; clip-rule:evenodd"
viewBox="0 0 11765.67 10820.48"
 xmlns:xlink="http://www.w3.org/1999/xlink"
 xmlns:xodm="http://www.corel.com/coreldraw/odm/2003">
 <defs>
  <style type="text/css">
   <![CDATA[
    .fil3 {fill:#FEFEFE}
    .fil0 {fill:#4DA439}
    .fil1 {fill:#FEFEFE;fill-rule:nonzero}
    .fil2 {fill:#A82682;fill-rule:nonzero}
   ]]>
  </style>
 </defs>
 <g id="Layer_x0020_1">
  <metadata id="CorelCorpID_0Corel-Layer"/>
  <g id="_2396905935072">
   <circle class="fil0" cx="6510.75" cy="5587.35" r="4454.72"/>
   <g>
    <path class="fil1" d="M4653.56 4339.33l0 -126.92c0,-414.58 -228.45,-710.73 -617.66,-710.73 -372.28,0 -617.66,279.21 -617.66,753.04 0,558.43 287.68,744.56 659.96,744.56 253.83,0 397.67,-76.15 541.51,-228.45l-186.15 -169.22c-101.53,101.53 -186.14,143.83 -355.36,143.83 -236.9,0 -372.28,-152.3 -372.28,-406.13l947.64 0zm-287.68 -203.06l-659.96 0c8.46,-93.07 8.46,-135.37 42.3,-203.06 42.31,-109.99 152.3,-186.14 287.68,-186.14 135.38,0 245.37,76.15 287.68,186.14 33.84,67.69 42.3,110 42.3,203.06zm1717.58 846.11l0 -262.29 -736.11 0 736.11 -964.56 0 -228.45 -1057.62 0 0 262.29 693.81 0 -727.65 964.56 0 228.45 1091.47 0zm1539.91 -8.46l0 -1446.83 -287.68 0 0 152.3c-110,-135.37 -228.45,-177.68 -380.75,-177.68 -152.3,0 -270.75,50.77 -355.36,126.92 -143.83,143.84 -160.76,346.91 -160.76,600.74 0,245.37 16.93,448.43 160.76,592.26 84.61,76.15 203.06,126.92 346.9,126.92 152.3,0 270.76,-42.3 380.75,-169.22l0 194.6c0,194.61 -93.07,372.29 -346.9,372.29 -143.83,0 -219.98,-50.77 -313.06,-135.38l-186.14 186.15c152.3,143.83 287.67,194.6 516.12,194.6 389.21,0 626.12,-253.83 626.12,-617.66zm-296.14 -744.56c0,228.45 -33.84,456.89 -296.13,456.89 -270.75,0 -304.6,-228.45 -304.6,-456.89 0,-236.91 33.85,-456.89 304.6,-456.89 262.29,0 296.13,219.98 296.13,456.89zm1988.34 753.03l0 -1455.3 -296.13 0 0 888.41c0,219.99 -143.84,321.53 -304.6,321.53 -160.76,0 -296.14,-93.08 -296.14,-321.53l0 -888.41 -296.13 0 0 930.72c0,160.75 42.3,304.6 152.3,414.58 84.61,84.61 211.53,126.92 355.36,126.92 152.3,0 296.13,-50.77 389.21,-160.75l0 143.83 296.13 0z"/>
    <path class="fil1" d="M4602.8 7647.59l0 -981.47c0,-329.98 -203.06,-499.21 -600.74,-499.21 -245.37,0 -389.2,50.77 -524.58,211.53l186.15 177.68c84.6,-101.53 160.75,-135.38 321.52,-135.38 228.45,0 321.52,84.61 321.52,270.76l0 101.53 -389.2 0c-329.98,0 -499.21,177.68 -499.21,423.05 0,126.92 42.31,236.91 110,313.06 93.07,93.07 211.53,135.37 397.66,135.37 177.68,0 279.21,-42.3 389.21,-152.3l0 135.38 287.68 0zm-296.14 -533.04c0,110 -16.92,177.68 -59.22,219.98 -84.61,76.15 -169.23,84.61 -279.21,84.61 -186.15,0 -270.76,-76.15 -270.76,-211.53 0,-126.92 93.08,-211.52 270.76,-211.52l338.43 0 0 118.45zm2656.77 533.04l0 -939.17c0,-160.76 -42.31,-296.13 -152.3,-406.13 -93.08,-84.61 -177.68,-135.38 -329.98,-135.38 -194.61,0 -296.14,67.69 -414.59,211.53 -93.07,-143.83 -194.6,-211.53 -380.75,-211.53 -143.83,0 -245.37,59.23 -346.9,160.76l0 -143.83 -287.68 0 0 1463.75 296.13 0 0 -896.87c0,-219.98 101.53,-321.52 262.29,-321.52 160.76,0 253.83,101.53 253.83,321.52l0 896.87 296.13 0 0 -905.33c0,-211.53 101.53,-313.06 253.83,-313.06 169.23,0 253.83,101.53 253.83,321.52l0 896.87 296.14 0zm1616.05 0l0 -981.47c0,-329.98 -203.06,-499.21 -609.19,-499.21 -236.91,0 -380.75,50.77 -524.58,211.53l194.6 177.68c84.61,-101.53 160.76,-135.38 321.52,-135.38 228.45,0 321.53,84.61 321.53,270.76l0 101.53 -389.21 0c-329.98,0 -507.66,177.68 -507.66,423.05 0,126.92 42.3,236.91 118.45,313.06 93.08,93.07 211.53,135.37 389.21,135.37 186.15,0 287.68,-42.3 389.21,-152.3l0 135.38 296.13 0zm-296.13 -533.04c0,110 -25.38,177.68 -67.69,219.98 -76.15,76.15 -160.75,84.61 -270.75,84.61 -186.15,0 -270.75,-76.15 -270.75,-211.53 0,-126.92 93.07,-211.52 262.28,-211.52l346.91 0 0 118.45zm1319.92 533.04l0 -253.83 -135.38 0c-118.45,0 -152.3,-59.23 -152.3,-169.22l0 -1632.98 -296.13 0 0 1649.9c0,219.98 118.45,406.13 397.66,406.13l186.15 0z"/>
   </g>
   <path class="fil2" d="M6506.53 10820.48c-1446.83,0 -2749.83,-583.81 -3697.47,-1531.45 -947.63,-947.63 -1539.9,-2259.09 -1539.9,-3705.93l423.05 0c0,1328.38 541.51,2529.85 1413,3401.33 871.48,871.49 2072.95,1413 3401.33,1413 1328.37,0 2529.84,-541.51 3401.33,-1413 871.48,-871.48 1412.99,-2072.95 1412.99,-3401.33 0,-1328.37 -541.51,-2529.84 -1412.99,-3401.33 -871.49,-871.48 -2072.96,-1412.99 -3401.33,-1412.99 -1277.62,0 -2496,507.66 -3401.33,1412.99 -389.21,-795.33 50.77,-1446.83 922.24,-1802.2 1632.98,-651.5 4078.22,-516.12 5778.88,812.26 3782.08,2969.82 1768.35,9628.64 -3299.8,9628.64z"/>
   <ellipse class="fil3" cx="2170.25" cy="6073.85" rx="638.81" ry="1328.38"/>
   <path class="fil2" d="M3435.18 9830.54c-219.99,-169.22 -431.51,-346.9 -626.12,-541.51 -947.63,-947.63 -1539.9,-2259.09 -1539.9,-3705.93l423.05 0c0,1328.38 541.51,2529.85 1413,3401.33 423.05,431.51 930.71,778.42 1497.6,1023.79 -262.29,143.83 -626.12,211.53 -1167.62,-177.68z"/>
   <path class="fil2" d="M-0 8984.43c1734.51,-989.94 2470.62,-2276.01 2470.62,-3401.33 0,-211.52 -110,-719.18 -389.21,-719.18 -84.61,0 -177.68,67.68 -245.37,177.68 -84.61,135.37 -143.84,321.52 -143.84,541.5l-423.05 0c0,-296.13 84.61,-575.35 211.53,-769.95 152.3,-228.45 363.82,-372.29 600.73,-372.29 2005.26,0 820.72,5804.27 -2081.41,4543.57z"/>
  </g>
 </g>
</svg>
